<svg width="1448" height="1032" viewBox="0 0 1448 1032" fill="none" xmlns="http://www.w3.org/2000/svg">
<g filter="url(#filter0_dd_1_5)">
<rect x="4" width="1440" height="1024" fill="url(#paint0_radial_1_5)"/>
<rect x="4.5" y="0.5" width="1439" height="1023" stroke="black"/>
<g filter="url(#filter1_d_1_5)">
<path d="M522 199C522 179.118 538.118 163 558 163H926C945.882 163 962 179.118 962 199V794C962 813.882 945.882 830 926 830H558C538.118 830 522 813.882 522 794V199Z" fill="#2D98B5" fill-opacity="0.5" shape-rendering="crispEdges"/>
</g>
<g filter="url(#filter2_d_1_5)">
<rect width="250" height="30.4078" rx="10" transform="matrix(1 0 0 -1 617 527.408)" fill="white"/>
<path opacity="0.2" d="M723.241 508.96V517H721.921V510.085H717.766V517H716.446V508.96H723.241ZM728.852 508.825C729.832 508.825 730.557 509.04 731.027 509.47C731.497 509.9 731.732 510.585 731.732 511.525V517H730.772L730.517 515.86H730.457C730.227 516.15 729.987 516.395 729.737 516.595C729.497 516.785 729.217 516.925 728.897 517.015C728.587 517.105 728.207 517.15 727.757 517.15C727.277 517.15 726.842 517.065 726.452 516.895C726.072 516.725 725.772 516.465 725.552 516.115C725.332 515.755 725.222 515.305 725.222 514.765C725.222 513.965 725.537 513.35 726.167 512.92C726.797 512.48 727.767 512.24 729.077 512.2L730.442 512.155V511.675C730.442 511.005 730.297 510.54 730.007 510.28C729.717 510.02 729.307 509.89 728.777 509.89C728.357 509.89 727.957 509.955 727.577 510.085C727.197 510.205 726.842 510.345 726.512 510.505L726.107 509.515C726.457 509.325 726.872 509.165 727.352 509.035C727.832 508.895 728.332 508.825 728.852 508.825ZM729.242 513.115C728.242 513.155 727.547 513.315 727.157 513.595C726.777 513.875 726.587 514.27 726.587 514.78C726.587 515.23 726.722 515.56 726.992 515.77C727.272 515.98 727.627 516.085 728.057 516.085C728.737 516.085 729.302 515.9 729.752 515.53C730.202 515.15 730.427 514.57 730.427 513.79V513.07L729.242 513.115ZM738.04 508.81C739.03 508.81 739.825 509.155 740.425 509.845C741.035 510.535 741.34 511.575 741.34 512.965C741.34 513.875 741.2 514.645 740.92 515.275C740.65 515.895 740.265 516.365 739.765 516.685C739.275 516.995 738.695 517.15 738.025 517.15C737.615 517.15 737.25 517.095 736.93 516.985C736.61 516.875 736.335 516.735 736.105 516.565C735.885 516.385 735.695 516.19 735.535 515.98H735.445C735.465 516.15 735.485 516.365 735.505 516.625C735.525 516.885 735.535 517.11 735.535 517.3V520.6H734.215V508.96H735.295L735.475 510.055H735.535C735.695 509.825 735.885 509.615 736.105 509.425C736.335 509.235 736.605 509.085 736.915 508.975C737.235 508.865 737.61 508.81 738.04 508.81ZM737.8 509.92C737.26 509.92 736.825 510.025 736.495 510.235C736.165 510.435 735.925 510.74 735.775 511.15C735.625 511.56 735.545 512.08 735.535 512.71V512.965C735.535 513.625 735.605 514.185 735.745 514.645C735.885 515.105 736.12 515.455 736.45 515.695C736.79 515.935 737.25 516.055 737.83 516.055C738.32 516.055 738.72 515.92 739.03 515.65C739.35 515.38 739.585 515.015 739.735 514.555C739.895 514.085 739.975 513.55 739.975 512.95C739.975 512.03 739.795 511.295 739.435 510.745C739.085 510.195 738.54 509.92 737.8 509.92ZM750.433 512.965C750.433 513.635 750.343 514.23 750.163 514.75C749.993 515.26 749.743 515.695 749.413 516.055C749.093 516.415 748.698 516.69 748.228 516.88C747.768 517.06 747.253 517.15 746.683 517.15C746.153 517.15 745.663 517.06 745.213 516.88C744.763 516.69 744.373 516.415 744.043 516.055C743.713 515.695 743.453 515.26 743.263 514.75C743.083 514.23 742.993 513.635 742.993 512.965C742.993 512.075 743.143 511.325 743.443 510.715C743.743 510.095 744.173 509.625 744.733 509.305C745.293 508.975 745.958 508.81 746.728 508.81C747.458 508.81 748.098 508.975 748.648 509.305C749.208 509.625 749.643 510.095 749.953 510.715C750.273 511.325 750.433 512.075 750.433 512.965ZM744.358 512.965C744.358 513.595 744.438 514.145 744.598 514.615C744.768 515.075 745.028 515.43 745.378 515.68C745.728 515.93 746.173 516.055 746.713 516.055C747.253 516.055 747.698 515.93 748.048 515.68C748.398 515.43 748.653 515.075 748.813 514.615C748.983 514.145 749.068 513.595 749.068 512.965C749.068 512.325 748.983 511.78 748.813 511.33C748.643 510.88 748.383 510.535 748.033 510.295C747.693 510.045 747.248 509.92 746.698 509.92C745.878 509.92 745.283 510.19 744.913 510.73C744.543 511.27 744.358 512.015 744.358 512.965ZM758.645 517H757.31V510.055H754.94C754.84 511.325 754.715 512.41 754.565 513.31C754.415 514.2 754.225 514.925 753.995 515.485C753.765 516.045 753.49 516.455 753.17 516.715C752.85 516.975 752.475 517.105 752.045 517.105C751.915 517.105 751.785 517.095 751.655 517.075C751.535 517.065 751.435 517.04 751.355 517V516.01C751.415 516.03 751.48 516.045 751.55 516.055C751.62 516.065 751.69 516.07 751.76 516.07C751.98 516.07 752.18 515.98 752.36 515.8C752.54 515.62 752.7 515.345 752.84 514.975C752.99 514.605 753.125 514.14 753.245 513.58C753.365 513.01 753.47 512.34 753.56 511.57C753.65 510.8 753.73 509.93 753.8 508.96H758.645V517ZM764.902 512.26C765.602 512.26 766.182 512.345 766.642 512.515C767.102 512.685 767.447 512.94 767.677 513.28C767.917 513.61 768.037 514.03 768.037 514.54C768.037 515.04 767.922 515.475 767.692 515.845C767.472 516.215 767.127 516.5 766.657 516.7C766.187 516.9 765.582 517 764.842 517H761.197V508.96H762.517V512.26H764.902ZM766.717 514.615C766.717 514.125 766.542 513.795 766.192 513.625C765.852 513.445 765.372 513.355 764.752 513.355H762.517V515.935H764.782C765.342 515.935 765.802 515.835 766.162 515.635C766.532 515.435 766.717 515.095 766.717 514.615Z" fill="black"/>
</g>
<g filter="url(#filter3_d_1_5)">
<rect width="250" height="30.4078" rx="10" transform="matrix(1 0 0 -1 617 448.408)" fill="white"/>
<path opacity="0.2" d="M729.916 434.865C729.916 434.955 729.911 435.085 729.901 435.255C729.901 435.415 729.896 435.59 729.886 435.78C729.876 435.96 729.866 436.135 729.856 436.305C729.846 436.465 729.836 436.595 729.826 436.695L734.131 429.96H735.751V438H734.521V433.26C734.521 433.1 734.521 432.89 734.521 432.63C734.531 432.37 734.541 432.115 734.551 431.865C734.561 431.605 734.571 431.41 734.581 431.28L730.306 438H728.671V429.96H729.916V434.865ZM746.934 429.96V438H745.749V432.87C745.749 432.66 745.754 432.44 745.764 432.21C745.784 431.98 745.804 431.755 745.824 431.535H745.779L743.154 438H742.044L739.494 431.535H739.449C739.469 431.755 739.479 431.98 739.479 432.21C739.489 432.44 739.494 432.675 739.494 432.915V438H738.309V429.96H740.064L742.599 436.425L745.179 429.96H746.934ZM749.996 438H748.466L750.761 434.625C750.451 434.545 750.151 434.42 749.861 434.25C749.571 434.07 749.336 433.825 749.156 433.515C748.976 433.195 748.886 432.8 748.886 432.33C748.886 431.56 749.146 430.975 749.666 430.575C750.186 430.165 750.876 429.96 751.736 429.96H755.336V438H754.016V434.805H752.066L749.996 438ZM750.161 432.345C750.161 432.805 750.331 433.15 750.671 433.38C751.021 433.6 751.506 433.71 752.126 433.71H754.016V431.055H751.871C751.261 431.055 750.821 431.175 750.551 431.415C750.291 431.655 750.161 431.965 750.161 432.345Z" fill="black"/>
</g>
<path d="M655.945 282.648C655.155 282.648 654.462 282.584 653.865 282.456C653.267 282.328 652.745 282.019 652.297 281.528C651.87 281.037 651.657 280.28 651.657 279.256C651.657 277.827 652.083 275.907 652.937 273.496C653.811 271.085 654.953 268.664 656.361 266.232C655.294 266.296 654.451 266.456 653.833 266.712C653.214 266.968 652.809 267.363 652.617 267.896C652.702 267.896 652.787 268.003 652.873 268.216C652.979 268.429 653.033 268.653 653.033 268.888C653.033 269.272 652.862 269.581 652.521 269.816C652.179 270.029 651.753 270.136 651.241 270.136C650.643 270.136 650.163 269.976 649.801 269.656C649.438 269.336 649.257 268.877 649.257 268.28C649.257 267.555 649.534 266.893 650.089 266.296C650.665 265.699 651.454 265.229 652.457 264.888C653.459 264.525 654.569 264.344 655.785 264.344C656.233 264.344 656.787 264.376 657.449 264.44C659.198 261.667 661.043 259.405 662.985 257.656C664.947 255.885 666.814 255 668.585 255C669.609 255 670.451 255.149 671.113 255.448L666.089 279H661.481L663.945 267.384C663.155 267.021 662.43 266.755 661.769 266.584C661.107 266.413 660.403 266.296 659.657 266.232C658.441 268.856 657.438 271.544 656.649 274.296C655.881 277.027 655.497 279.213 655.497 280.856C655.497 281.667 655.646 282.264 655.945 282.648ZM666.089 257.272C665.171 257.763 664.211 258.68 663.209 260.024C662.227 261.347 661.267 262.957 660.329 264.856C661.865 265.155 663.166 265.528 664.233 265.976L666.089 257.272ZM675.208 279.128C673.437 279.128 672.104 278.605 671.208 277.56C670.333 276.515 669.896 275.117 669.896 273.368C669.896 271.661 670.354 269.315 671.272 266.328C672.189 263.32 673.405 260.675 674.92 258.392C676.434 256.109 678.066 254.968 679.816 254.968C682.162 254.968 683.336 256.429 683.336 259.352C683.336 261.421 682.461 263.981 680.712 267.032C681.16 267.245 681.565 267.565 681.928 267.992C682.866 267.992 683.88 267.789 684.968 267.384C686.077 266.979 687.016 266.509 687.784 265.976L688.072 266.84C687.496 267.459 686.728 268.003 685.768 268.472C684.829 268.92 683.794 269.24 682.664 269.432C682.77 269.837 682.824 270.371 682.824 271.032C682.824 272.461 682.514 273.795 681.896 275.032C681.277 276.269 680.392 277.261 679.24 278.008C678.088 278.755 676.744 279.128 675.208 279.128ZM676.616 276.248C677.277 276.248 677.853 276.024 678.344 275.576C678.856 275.128 679.24 274.563 679.496 273.88C679.773 273.197 679.912 272.493 679.912 271.768C679.912 270.979 679.816 270.392 679.624 270.008C679.474 270.072 679.314 270.125 679.144 270.168C678.973 270.189 678.749 270.2 678.472 270.2C677.96 270.2 677.554 270.061 677.256 269.784C676.957 269.507 676.808 269.123 676.808 268.632C676.808 267.992 677 267.523 677.384 267.224C677.789 266.925 678.344 266.755 679.048 266.712C679.666 265.581 680.189 264.333 680.616 262.968C681.064 261.581 681.288 260.333 681.288 259.224C681.288 258.584 681.202 258.136 681.032 257.88C680.882 257.603 680.616 257.464 680.232 257.464C679.4 257.464 678.546 258.499 677.672 260.568C676.818 262.637 676.104 264.995 675.528 267.64C674.952 270.285 674.664 272.227 674.664 273.464C674.664 275.32 675.314 276.248 676.616 276.248ZM704.175 279.192C702.873 279.192 701.913 278.851 701.295 278.168C700.697 277.464 700.399 276.6 700.399 275.576C700.399 275.128 700.452 274.627 700.559 274.072C700.665 273.496 700.772 272.941 700.879 272.408C701.007 271.875 701.092 271.533 701.135 271.384C701.305 270.637 701.465 269.901 701.615 269.176C701.764 268.451 701.839 267.864 701.839 267.416C701.839 266.328 701.455 265.784 700.687 265.784C700.132 265.784 699.641 266.061 699.215 266.616C698.788 267.149 698.447 267.853 698.191 268.728L696.015 279H691.407L693.743 267.96C693.807 267.704 693.839 267.437 693.839 267.16C693.839 266.221 693.519 265.752 692.879 265.752C692.281 265.752 691.759 266.029 691.311 266.584C690.884 267.117 690.543 267.832 690.287 268.728L688.111 279H683.503L686.895 263H691.503L691.151 264.664C692.239 263.448 693.54 262.84 695.055 262.84C696.932 262.84 698.031 263.757 698.351 265.592C699.524 263.779 701.007 262.872 702.799 262.872C703.887 262.872 704.751 263.171 705.391 263.768C706.031 264.365 706.351 265.272 706.351 266.488C706.351 267.107 706.276 267.8 706.127 268.568C705.977 269.315 705.764 270.232 705.487 271.32C705.316 271.981 705.156 272.632 705.007 273.272C704.879 273.891 704.815 274.381 704.815 274.744C704.815 275.171 704.911 275.501 705.103 275.736C705.295 275.971 705.625 276.088 706.095 276.088C706.735 276.088 707.247 275.864 707.631 275.416C708.015 274.947 708.399 274.232 708.783 273.272H710.127C709.337 275.619 708.42 277.197 707.375 278.008C706.351 278.797 705.284 279.192 704.175 279.192ZM713.453 279.128C711.875 279.128 710.627 278.723 709.709 277.912C708.792 277.101 708.333 275.821 708.333 274.072C708.333 272.621 708.632 271.011 709.229 269.24C709.827 267.469 710.787 265.944 712.109 264.664C713.432 263.363 715.096 262.712 717.101 262.712C719.832 262.712 721.197 264.419 721.197 267.832V267.864C721.261 267.885 721.379 267.896 721.549 267.896C722.253 267.896 723.064 267.715 723.981 267.352C724.899 266.968 725.731 266.509 726.477 265.976L726.765 266.84C726.147 267.501 725.336 268.067 724.333 268.536C723.352 268.984 722.275 269.304 721.101 269.496C720.931 271.437 720.493 273.133 719.789 274.584C719.085 276.035 718.179 277.155 717.069 277.944C715.96 278.733 714.755 279.128 713.453 279.128ZM714.733 276.248C715.245 276.248 715.757 275.96 716.269 275.384C716.781 274.787 717.229 273.987 717.613 272.984C717.997 271.96 718.275 270.829 718.445 269.592C717.869 269.464 717.581 269.016 717.581 268.248C717.581 267.373 717.912 266.797 718.573 266.52C718.531 265.816 718.424 265.336 718.253 265.08C718.083 264.803 717.784 264.664 717.357 264.664C716.653 264.664 715.971 265.176 715.309 266.2C714.648 267.224 714.115 268.451 713.709 269.88C713.304 271.309 713.101 272.568 713.101 273.656C713.101 274.68 713.219 275.373 713.453 275.736C713.688 276.077 714.115 276.248 714.733 276.248ZM725.276 261.816H729.884L729.372 264.216C730.438 263.299 731.686 262.84 733.116 262.84C734.31 262.84 735.26 263.235 735.964 264.024C736.668 264.813 737.02 266.104 737.02 267.896C737.02 269.581 736.774 271.288 736.284 273.016C735.793 274.723 734.961 276.184 733.788 277.4C732.614 278.595 731.068 279.192 729.148 279.192C727.782 279.192 726.876 278.808 726.428 278.04L724.764 285.848L719.932 287L725.276 261.816ZM728.156 276.408C729.18 276.408 730.022 275.928 730.684 274.968C731.366 274.008 731.857 272.867 732.156 271.544C732.476 270.2 732.636 268.952 732.636 267.8C732.636 266.029 732.102 265.144 731.036 265.144C730.652 265.144 730.257 265.283 729.852 265.56C729.468 265.837 729.126 266.221 728.828 266.712L726.94 275.672C727.11 276.163 727.516 276.408 728.156 276.408ZM740.981 279.192C739.957 279.192 739.125 278.872 738.485 278.232C737.866 277.592 737.556 276.632 737.556 275.352C737.556 274.819 737.642 274.125 737.812 273.272L739.989 263H744.597L742.293 273.88C742.229 274.2 742.197 274.499 742.197 274.776C742.197 275.651 742.517 276.088 743.157 276.088C743.754 276.088 744.266 275.843 744.693 275.352C745.119 274.84 745.461 274.147 745.717 273.272L747.893 263H752.501L750.197 273.88C750.111 274.2 750.069 274.541 750.069 274.904C750.069 275.331 750.165 275.64 750.357 275.832C750.57 276.003 750.911 276.088 751.381 276.088C751.978 276.088 752.49 275.832 752.917 275.32C753.365 274.808 753.717 274.125 753.972 273.272H755.317C754.527 275.576 753.546 277.144 752.373 277.976C751.221 278.787 750.058 279.192 748.885 279.192C747.967 279.192 747.231 278.936 746.677 278.424C746.143 277.912 745.823 277.155 745.717 276.152C744.991 277.325 744.223 278.125 743.413 278.552C742.623 278.979 741.813 279.192 740.981 279.192ZM757.969 287C756.945 287 756.091 286.733 755.409 286.2C754.726 285.667 754.385 284.899 754.385 283.896C754.385 281.827 756.059 280.259 759.409 279.192C759.345 276.931 758.577 275.8 757.105 275.8H756.113L756.529 273.88H757.457C758.203 273.88 758.875 273.635 759.473 273.144C760.07 272.653 760.539 271.992 760.881 271.16C761.222 270.307 761.393 269.379 761.393 268.376C761.393 267.629 761.222 266.989 760.881 266.456C760.539 265.901 759.995 265.624 759.249 265.624C758.459 265.624 757.777 265.965 757.201 266.648C756.625 267.309 756.166 268.077 755.825 268.952H754.289C754.971 267.075 755.825 265.571 756.849 264.44C757.894 263.288 759.334 262.712 761.169 262.712C762.726 262.712 763.953 263.16 764.849 264.056C765.766 264.952 766.225 266.2 766.225 267.8C766.225 269.08 765.915 270.243 765.297 271.288C764.699 272.312 764.006 273.144 763.217 273.784C762.427 274.403 761.777 274.765 761.265 274.872C761.819 275.064 762.342 275.448 762.833 276.024C763.345 276.6 763.697 277.283 763.889 278.072C765.105 277.709 766.054 277.187 766.737 276.504C767.441 275.821 768.038 274.744 768.529 273.272H769.873C769.297 275.213 768.497 276.632 767.473 277.528C766.449 278.424 765.297 279.032 764.017 279.352C763.974 281.741 763.398 283.608 762.289 284.952C761.201 286.317 759.761 287 757.969 287ZM757.233 284.504C757.681 284.504 758.107 284.131 758.513 283.384C758.918 282.637 759.185 281.752 759.313 280.728C757.201 281.453 756.145 282.36 756.145 283.448C756.145 283.768 756.23 284.024 756.401 284.216C756.593 284.408 756.87 284.504 757.233 284.504ZM772.371 279.192C771.155 279.192 770.142 278.776 769.331 277.944C768.521 277.112 768.115 275.811 768.115 274.04C768.115 272.461 768.425 270.808 769.043 269.08C769.683 267.331 770.622 265.859 771.859 264.664C773.118 263.448 774.611 262.84 776.339 262.84C777.214 262.84 777.865 262.989 778.291 263.288C778.718 263.587 778.931 263.981 778.931 264.472V264.696L779.283 263H783.891L781.587 273.88C781.502 274.2 781.459 274.541 781.459 274.904C781.459 275.821 781.897 276.28 782.771 276.28C783.369 276.28 783.881 276.003 784.307 275.448C784.755 274.893 785.107 274.168 785.363 273.272H786.707C785.918 275.576 784.937 277.144 783.763 277.976C782.611 278.787 781.449 279.192 780.275 279.192C779.379 279.192 778.654 278.947 778.099 278.456C777.566 277.944 777.246 277.208 777.139 276.248C776.521 277.123 775.827 277.837 775.059 278.392C774.313 278.925 773.417 279.192 772.371 279.192ZM774.451 276.088C774.985 276.088 775.507 275.843 776.019 275.352C776.553 274.84 776.915 274.147 777.107 273.272L778.643 266.04C778.643 265.763 778.537 265.496 778.323 265.24C778.11 264.963 777.779 264.824 777.331 264.824C776.478 264.824 775.71 265.325 775.027 266.328C774.345 267.309 773.811 268.504 773.427 269.912C773.043 271.299 772.851 272.525 772.851 273.592C772.851 274.659 773.001 275.341 773.299 275.64C773.619 275.939 774.003 276.088 774.451 276.088ZM788.063 286.552C788.34 285.016 788.671 283.832 789.055 283C789.46 282.168 789.972 281.581 790.591 281.24C791.21 280.899 792.02 280.728 793.023 280.728H795.519C796.287 280.728 796.852 280.685 797.215 280.6C797.599 280.515 797.94 280.269 798.239 279.864C798.538 279.459 798.783 278.797 798.975 277.88C798.42 278.435 797.951 278.797 797.567 278.968C797.183 279.117 796.703 279.192 796.127 279.192C795.359 279.192 794.719 278.936 794.207 278.424C793.695 277.891 793.386 277.133 793.279 276.152C792.554 277.325 791.786 278.125 790.975 278.552C790.186 278.979 789.375 279.192 788.543 279.192C787.519 279.192 786.687 278.872 786.047 278.232C785.428 277.592 785.119 276.632 785.119 275.352C785.119 274.819 785.204 274.125 785.375 273.272L787.551 263H792.159L789.855 273.88C789.791 274.2 789.759 274.499 789.759 274.776C789.759 275.651 790.079 276.088 790.719 276.088C791.316 276.088 791.828 275.843 792.255 275.352C792.682 274.84 793.023 274.147 793.279 273.272L795.455 263H800.063L797.759 273.88C797.674 274.2 797.631 274.541 797.631 274.904C797.631 275.331 797.727 275.64 797.919 275.832C798.132 276.003 798.474 276.088 798.943 276.088H800.575C800.34 278.648 799.882 280.579 799.199 281.88C798.516 283.203 797.78 284.056 796.991 284.44C796.202 284.824 795.359 285.016 794.463 285.016H792.255C791.359 285.016 790.687 285.048 790.239 285.112C789.791 285.176 789.45 285.315 789.215 285.528C788.98 285.741 788.81 286.083 788.703 286.552H788.063ZM805.668 279.192C804.644 279.192 803.812 278.872 803.172 278.232C802.553 277.592 802.244 276.632 802.244 275.352C802.244 274.819 802.329 274.125 802.5 273.272L804.676 263H809.284L806.98 273.88C806.916 274.2 806.884 274.499 806.884 274.776C806.884 275.651 807.204 276.088 807.844 276.088C808.441 276.088 808.953 275.843 809.38 275.352C809.807 274.84 810.148 274.147 810.404 273.272L812.58 263H817.188L814.884 273.88C814.799 274.2 814.756 274.541 814.756 274.904C814.756 275.331 814.852 275.64 815.044 275.832C815.257 276.003 815.599 276.088 816.068 276.088C816.665 276.088 817.177 275.832 817.604 275.32C818.052 274.808 818.404 274.125 818.66 273.272H820.004C819.215 275.576 818.233 277.144 817.06 277.976C815.908 278.787 814.745 279.192 813.572 279.192C812.655 279.192 811.919 278.936 811.364 278.424C810.831 277.912 810.511 277.155 810.404 276.152C809.679 277.325 808.911 278.125 808.1 278.552C807.311 278.979 806.5 279.192 805.668 279.192ZM821.024 279.192C819.872 279.192 818.987 278.851 818.368 278.168C817.75 277.464 817.44 276.6 817.44 275.576C817.44 274.808 817.622 274.189 817.984 273.72C818.326 273.251 818.806 273.016 819.424 273.016C819.915 273.016 820.31 273.176 820.608 273.496C820.928 273.795 821.088 274.189 821.088 274.68C821.088 275.192 820.96 275.576 820.704 275.832C820.47 276.088 820.171 276.195 819.808 276.152C819.83 276.429 819.936 276.675 820.128 276.888C820.32 277.08 820.63 277.176 821.056 277.176C821.739 277.176 822.262 276.792 822.624 276.024C823.008 275.256 823.392 273.997 823.776 272.248C822.838 272.056 822.091 271.651 821.536 271.032C821.003 270.413 820.736 269.581 820.736 268.536C820.736 266.893 821.398 265.56 822.72 264.536C824.043 263.512 826.187 263 829.152 263H834.016L832.32 270.936C832.107 271.853 831.926 272.653 831.776 273.336C831.627 274.019 831.552 274.488 831.552 274.744C831.552 275.64 831.979 276.088 832.832 276.088C833.238 276.088 833.6 275.992 833.92 275.8C833.686 277.827 832.683 278.957 830.912 279.192C829.696 279.192 828.758 278.872 828.096 278.232C827.456 277.571 827.136 276.76 827.136 275.8C827.136 275.181 827.328 273.987 827.712 272.216C827.136 272.344 826.539 272.408 825.92 272.408C825.536 274.051 825.163 275.341 824.8 276.28C824.438 277.219 823.958 277.944 823.36 278.456C822.763 278.947 821.984 279.192 821.024 279.192ZM827.488 270.904C827.723 270.904 827.894 270.883 828 270.84L829.344 264.728H828.576C827.339 264.728 826.39 265.069 825.728 265.752C825.088 266.413 824.768 267.309 824.768 268.44C824.768 270.083 825.536 270.904 827.072 270.904H827.488Z" fill="black"/>
<path d="M724.681 371.544C723.828 371.544 723.081 371.363 722.441 371C721.822 370.659 721.513 370.051 721.513 369.176C721.513 368.621 721.652 368.003 721.929 367.32C722.313 367.747 722.665 368.045 722.985 368.216C723.326 368.387 723.689 368.472 724.073 368.472C725.14 368.472 725.929 367.875 726.441 366.68C726.974 365.485 727.241 364.163 727.241 362.712C727.241 360.003 726.228 358.648 724.201 358.648C723.625 358.648 723.134 358.68 722.729 358.744L720.105 371H715.497L719.849 350.648L724.585 350.008L723.081 357.112H723.273C724.084 357.112 724.841 356.856 725.545 356.344C726.249 355.811 726.814 355.149 727.241 354.36C727.668 353.549 727.881 352.739 727.881 351.928C727.881 350.947 727.529 350.125 726.825 349.464C726.142 348.803 725.086 348.472 723.657 348.472C722.356 348.472 721.086 348.771 719.849 349.368C718.612 349.944 717.598 350.819 716.809 351.992C716.041 353.165 715.657 354.584 715.657 356.248C715.657 357.037 715.732 357.592 715.881 357.912C716.03 358.211 716.105 358.381 716.105 358.424C714.974 358.424 714.121 358.2 713.545 357.752C712.969 357.283 712.681 356.525 712.681 355.48C712.681 354.029 713.225 352.653 714.313 351.352C715.401 350.051 716.841 349.005 718.633 348.216C720.425 347.405 722.313 347 724.297 347C725.79 347 727.049 347.235 728.073 347.704C729.097 348.173 729.854 348.792 730.345 349.56C730.857 350.328 731.113 351.171 731.113 352.088C731.113 353.069 730.836 354.019 730.281 354.936C729.726 355.853 728.937 356.6 727.913 357.176C729.193 357.411 730.142 358.008 730.761 358.968C731.38 359.907 731.689 361.027 731.689 362.328C731.689 363.544 731.454 364.867 730.985 366.296C730.537 367.725 729.78 368.963 728.713 370.008C727.668 371.032 726.324 371.544 724.681 371.544ZM732.989 371.928C732.285 371.928 731.762 371.725 731.421 371.32C731.058 370.915 730.877 370.36 730.877 369.656C730.877 368.632 731.346 367.533 732.285 366.36C733.202 365.165 734.29 364.152 735.549 363.32L733.693 355H738.205L739.645 361.464C740.733 360.461 741.544 359.587 742.077 358.84C742.632 358.093 742.909 357.421 742.909 356.824C742.909 356.632 742.898 356.504 742.877 356.44C742.578 356.483 742.397 356.504 742.333 356.504C741.8 356.504 741.416 356.344 741.181 356.024C740.946 355.683 740.829 355.245 740.829 354.712C740.829 354.243 741 353.88 741.341 353.624C741.682 353.347 742.109 353.208 742.621 353.208C743.304 353.208 743.837 353.475 744.221 354.008C744.605 354.541 744.797 355.224 744.797 356.056C744.797 357.123 744.424 358.211 743.677 359.32C742.952 360.408 741.736 361.709 740.029 363.224L740.509 365.272C740.53 365.357 740.594 365.688 740.701 366.264C740.829 366.84 741.032 367.288 741.309 367.608C741.608 367.928 741.97 368.088 742.397 368.088C743.016 368.088 743.592 367.832 744.125 367.32C744.658 366.787 745.042 366.104 745.277 365.272H746.621C745.832 367.576 744.84 369.144 743.645 369.976C742.472 370.787 741.298 371.192 740.125 371.192C739.357 371.192 738.728 371 738.237 370.616C737.746 370.211 737.33 369.592 736.989 368.76C736.648 367.907 736.317 366.744 735.997 365.272L735.933 365.048C734.013 366.392 733.053 367.587 733.053 368.632C733.117 368.611 733.256 368.6 733.469 368.6C734.344 368.6 734.781 369.123 734.781 370.168C734.781 370.765 734.621 371.203 734.301 371.48C733.981 371.779 733.544 371.928 732.989 371.928ZM749.938 371.128C748.359 371.128 747.111 370.723 746.194 369.912C745.276 369.101 744.818 367.821 744.818 366.072C744.818 364.621 745.116 363.011 745.714 361.24C746.311 359.469 747.271 357.944 748.594 356.664C749.916 355.363 751.58 354.712 753.586 354.712C756.316 354.712 757.682 356.419 757.682 359.832V359.864C757.746 359.885 757.863 359.896 758.034 359.896C758.738 359.896 759.548 359.715 760.466 359.352C761.383 358.968 762.215 358.509 762.962 357.976L763.25 358.84C762.631 359.501 761.82 360.067 760.818 360.536C759.836 360.984 758.759 361.304 757.586 361.496C757.415 363.437 756.978 365.133 756.274 366.584C755.57 368.035 754.663 369.155 753.554 369.944C752.444 370.733 751.239 371.128 749.938 371.128ZM751.218 368.248C751.73 368.248 752.242 367.96 752.754 367.384C753.266 366.787 753.714 365.987 754.098 364.984C754.482 363.96 754.759 362.829 754.93 361.592C754.354 361.464 754.066 361.016 754.066 360.248C754.066 359.373 754.396 358.797 755.058 358.52C755.015 357.816 754.908 357.336 754.738 357.08C754.567 356.803 754.268 356.664 753.842 356.664C753.138 356.664 752.455 357.176 751.794 358.2C751.132 359.224 750.599 360.451 750.194 361.88C749.788 363.309 749.586 364.568 749.586 365.656C749.586 366.68 749.703 367.373 749.938 367.736C750.172 368.077 750.599 368.248 751.218 368.248ZM764.96 379C763.957 379 763.072 378.669 762.304 378.008C761.557 377.368 761.184 376.547 761.184 375.544C761.184 374.605 761.419 373.837 761.888 373.24C762.357 372.643 762.965 372.173 763.712 371.832C764.459 371.491 765.461 371.128 766.72 370.744L767.008 369.4C765.899 370.595 764.619 371.192 763.168 371.192C761.952 371.192 760.939 370.776 760.128 369.944C759.317 369.112 758.912 367.811 758.912 366.04C758.912 364.461 759.221 362.808 759.84 361.08C760.48 359.331 761.419 357.859 762.656 356.664C763.915 355.448 765.408 354.84 767.136 354.84C768.011 354.84 768.661 354.989 769.088 355.288C769.515 355.587 769.728 355.981 769.728 356.472V356.536L770.048 355H774.688L770.784 373.56C770.357 375.608 769.6 377.027 768.512 377.816C767.445 378.605 766.261 379 764.96 379ZM765.248 368.088C765.739 368.088 766.229 367.885 766.72 367.48C767.232 367.053 767.595 366.456 767.808 365.688L769.44 357.944C769.269 357.197 768.832 356.824 768.128 356.824C767.275 356.824 766.507 357.325 765.824 358.328C765.141 359.309 764.608 360.504 764.224 361.912C763.84 363.299 763.648 364.525 763.648 365.592C763.648 366.659 763.797 367.341 764.096 367.64C764.416 367.939 764.8 368.088 765.248 368.088ZM764.224 376.152C764.608 376.152 764.971 375.949 765.312 375.544C765.653 375.16 765.92 374.531 766.112 373.656L766.496 371.768C765.365 372.152 764.491 372.6 763.872 373.112C763.253 373.624 762.944 374.285 762.944 375.096C762.944 375.352 763.072 375.587 763.328 375.8C763.584 376.035 763.883 376.152 764.224 376.152Z" fill="white"/>
<rect x="619" y="561" width="250" height="48" rx="10" fill="#FFF6F6"/>
<path d="M709.65 597.544C708.796 597.544 708.05 597.363 707.41 597C706.791 596.659 706.482 596.051 706.482 595.176C706.482 594.621 706.62 594.003 706.898 593.32C707.282 593.747 707.634 594.045 707.954 594.216C708.295 594.387 708.658 594.472 709.042 594.472C710.108 594.472 710.898 593.875 711.41 592.68C711.943 591.485 712.21 590.163 712.21 588.712C712.21 586.003 711.196 584.648 709.17 584.648C708.594 584.648 708.103 584.68 707.698 584.744L705.074 597H700.466L704.818 576.648L709.554 576.008L708.05 583.112H708.242C709.052 583.112 709.81 582.856 710.514 582.344C711.218 581.811 711.783 581.149 712.21 580.36C712.636 579.549 712.85 578.739 712.85 577.928C712.85 576.947 712.498 576.125 711.794 575.464C711.111 574.803 710.055 574.472 708.626 574.472C707.324 574.472 706.055 574.771 704.818 575.368C703.58 575.944 702.567 576.819 701.778 577.992C701.01 579.165 700.626 580.584 700.626 582.248C700.626 583.037 700.7 583.592 700.85 583.912C700.999 584.211 701.074 584.381 701.074 584.424C699.943 584.424 699.09 584.2 698.514 583.752C697.938 583.283 697.65 582.525 697.65 581.48C697.65 580.029 698.194 578.653 699.282 577.352C700.37 576.051 701.81 575.005 703.602 574.216C705.394 573.405 707.282 573 709.266 573C710.759 573 712.018 573.235 713.042 573.704C714.066 574.173 714.823 574.792 715.314 575.56C715.826 576.328 716.082 577.171 716.082 578.088C716.082 579.069 715.804 580.019 715.25 580.936C714.695 581.853 713.906 582.6 712.882 583.176C714.162 583.411 715.111 584.008 715.73 584.968C716.348 585.907 716.658 587.027 716.658 588.328C716.658 589.544 716.423 590.867 715.954 592.296C715.506 593.725 714.748 594.963 713.682 596.008C712.636 597.032 711.292 597.544 709.65 597.544ZM722.438 597.128C720.859 597.128 719.611 596.723 718.694 595.912C717.776 595.101 717.318 593.821 717.318 592.072C717.318 590.621 717.616 589.011 718.214 587.24C718.811 585.469 719.771 583.944 721.094 582.664C722.416 581.363 724.08 580.712 726.086 580.712C728.816 580.712 730.182 582.419 730.182 585.832V585.864C730.246 585.885 730.363 585.896 730.534 585.896C731.238 585.896 732.048 585.715 732.966 585.352C733.883 584.968 734.715 584.509 735.462 583.976L735.75 584.84C735.131 585.501 734.32 586.067 733.318 586.536C732.336 586.984 731.259 587.304 730.086 587.496C729.915 589.437 729.478 591.133 728.774 592.584C728.07 594.035 727.163 595.155 726.054 595.944C724.944 596.733 723.739 597.128 722.438 597.128ZM723.718 594.248C724.23 594.248 724.742 593.96 725.254 593.384C725.766 592.787 726.214 591.987 726.598 590.984C726.982 589.96 727.259 588.829 727.43 587.592C726.854 587.464 726.566 587.016 726.566 586.248C726.566 585.373 726.896 584.797 727.558 584.52C727.515 583.816 727.408 583.336 727.238 583.08C727.067 582.803 726.768 582.664 726.342 582.664C725.638 582.664 724.955 583.176 724.294 584.2C723.632 585.224 723.099 586.451 722.694 587.88C722.288 589.309 722.086 590.568 722.086 591.656C722.086 592.68 722.203 593.373 722.438 593.736C722.672 594.077 723.099 594.248 723.718 594.248ZM734.996 597.192C733.972 597.192 733.14 596.872 732.5 596.232C731.881 595.592 731.572 594.632 731.572 593.352C731.572 592.819 731.657 592.125 731.828 591.272L734.004 581H738.612L736.308 591.88C736.244 592.2 736.212 592.499 736.212 592.776C736.212 593.651 736.532 594.088 737.172 594.088C737.769 594.088 738.281 593.843 738.708 593.352C739.135 592.84 739.476 592.147 739.732 591.272L741.908 581H746.516L744.212 591.88C744.127 592.2 744.084 592.541 744.084 592.904C744.084 593.331 744.18 593.64 744.372 593.832C744.585 594.003 744.927 594.088 745.396 594.088C745.993 594.088 746.505 593.832 746.932 593.32C747.38 592.808 747.732 592.125 747.988 591.272H749.332C748.543 593.576 747.561 595.144 746.388 595.976C745.236 596.787 744.073 597.192 742.9 597.192C741.983 597.192 741.247 596.936 740.692 596.424C740.159 595.912 739.839 595.155 739.732 594.152C739.007 595.325 738.239 596.125 737.428 596.552C736.639 596.979 735.828 597.192 734.996 597.192ZM739.956 579.432C738.633 579.432 737.609 579.187 736.884 578.696C736.159 578.205 735.796 577.533 735.796 576.68C735.796 575.976 735.988 575.411 736.372 574.984C736.777 574.557 737.3 574.344 737.94 574.344C738.559 574.344 739.039 574.493 739.38 574.792C739.743 575.091 739.924 575.517 739.924 576.072C739.924 576.755 739.668 577.267 739.156 577.608C739.433 577.693 739.86 577.736 740.436 577.736C741.396 577.736 742.324 577.448 743.22 576.872C744.137 576.275 744.852 575.315 745.364 573.992H746.708C746.025 575.976 745.119 577.384 743.988 578.216C742.857 579.027 741.513 579.432 739.956 579.432ZM767.44 597.192C766.139 597.192 765.179 596.851 764.56 596.168C763.963 595.464 763.664 594.6 763.664 593.576C763.664 593.128 763.718 592.627 763.824 592.072C763.931 591.496 764.038 590.941 764.144 590.408C764.272 589.875 764.358 589.533 764.4 589.384C764.571 588.637 764.731 587.901 764.88 587.176C765.03 586.451 765.104 585.864 765.104 585.416C765.104 584.328 764.72 583.784 763.952 583.784C763.398 583.784 762.907 584.061 762.48 584.616C762.054 585.149 761.712 585.853 761.456 586.728L759.28 597H754.672L757.008 585.96C757.072 585.704 757.104 585.437 757.104 585.16C757.104 584.221 756.784 583.752 756.144 583.752C755.547 583.752 755.024 584.029 754.576 584.584C754.15 585.117 753.808 585.832 753.552 586.728L751.376 597H746.768L750.16 581H754.768L754.416 582.664C755.504 581.448 756.806 580.84 758.32 580.84C760.198 580.84 761.296 581.757 761.616 583.592C762.79 581.779 764.272 580.872 766.064 580.872C767.152 580.872 768.016 581.171 768.656 581.768C769.296 582.365 769.616 583.272 769.616 584.488C769.616 585.107 769.542 585.8 769.392 586.568C769.243 587.315 769.03 588.232 768.752 589.32C768.582 589.981 768.422 590.632 768.272 591.272C768.144 591.891 768.08 592.381 768.08 592.744C768.08 593.171 768.176 593.501 768.368 593.736C768.56 593.971 768.891 594.088 769.36 594.088C770 594.088 770.512 593.864 770.896 593.416C771.28 592.947 771.664 592.232 772.048 591.272H773.392C772.603 593.619 771.686 595.197 770.64 596.008C769.616 596.797 768.55 597.192 767.44 597.192ZM775.215 597.192C774.191 597.192 773.359 596.872 772.719 596.232C772.1 595.592 771.791 594.632 771.791 593.352C771.791 592.819 771.876 592.125 772.047 591.272L774.223 581H778.831L776.527 591.88C776.463 592.136 776.431 592.403 776.431 592.68C776.431 593.619 776.751 594.088 777.391 594.088C777.988 594.088 778.5 593.843 778.927 593.352C779.354 592.84 779.695 592.147 779.951 591.272L782.127 581H786.735L784.431 591.88C784.346 592.2 784.303 592.541 784.303 592.904C784.303 593.331 784.399 593.64 784.591 593.832C784.804 594.003 785.146 594.088 785.615 594.088C785.956 594.088 786.202 594.067 786.351 594.024C786.522 593.96 786.628 593.917 786.671 593.896C786.586 594.984 786.212 595.805 785.551 596.36C784.89 596.915 784.079 597.192 783.119 597.192C782.223 597.192 781.498 596.925 780.943 596.392C780.41 595.859 780.09 595.112 779.983 594.152C779.258 595.325 778.49 596.125 777.679 596.552C776.89 596.979 776.068 597.192 775.215 597.192Z" fill="black"/>
</g>
<defs>
<filter id="filter0_dd_1_5" x="0" y="0" width="1448" height="1032" filterUnits="userSpaceOnUse" color-interpolation-filters="sRGB">
<feFlood flood-opacity="0" result="BackgroundImageFix"/>
<feColorMatrix in="SourceAlpha" type="matrix" values="0 0 0 0 0 0 0 0 0 0 0 0 0 0 0 0 0 0 127 0" result="hardAlpha"/>
<feOffset dy="4"/>
<feGaussianBlur stdDeviation="2"/>
<feComposite in2="hardAlpha" operator="out"/>
<feColorMatrix type="matrix" values="0 0 0 0 0 0 0 0 0 0 0 0 0 0 0 0 0 0 0.25 0"/>
<feBlend mode="normal" in2="BackgroundImageFix" result="effect1_dropShadow_1_5"/>
<feColorMatrix in="SourceAlpha" type="matrix" values="0 0 0 0 0 0 0 0 0 0 0 0 0 0 0 0 0 0 127 0" result="hardAlpha"/>
<feOffset dy="4"/>
<feGaussianBlur stdDeviation="2"/>
<feComposite in2="hardAlpha" operator="out"/>
<feColorMatrix type="matrix" values="0 0 0 0 0 0 0 0 0 0 0 0 0 0 0 0 0 0 0.25 0"/>
<feBlend mode="normal" in2="effect1_dropShadow_1_5" result="effect2_dropShadow_1_5"/>
<feBlend mode="normal" in="SourceGraphic" in2="effect2_dropShadow_1_5" result="shape"/>
</filter>
<filter id="filter1_d_1_5" x="518" y="163" width="448" height="675" filterUnits="userSpaceOnUse" color-interpolation-filters="sRGB">
<feFlood flood-opacity="0" result="BackgroundImageFix"/>
<feColorMatrix in="SourceAlpha" type="matrix" values="0 0 0 0 0 0 0 0 0 0 0 0 0 0 0 0 0 0 127 0" result="hardAlpha"/>
<feOffset dy="4"/>
<feGaussianBlur stdDeviation="2"/>
<feComposite in2="hardAlpha" operator="out"/>
<feColorMatrix type="matrix" values="0 0 0 0 0 0 0 0 0 0 0 0 0 0 0 0 0 0 0.25 0"/>
<feBlend mode="normal" in2="BackgroundImageFix" result="effect1_dropShadow_1_5"/>
<feBlend mode="normal" in="SourceGraphic" in2="effect1_dropShadow_1_5" result="shape"/>
</filter>
<filter id="filter2_d_1_5" x="613" y="497" width="258" height="38.4078" filterUnits="userSpaceOnUse" color-interpolation-filters="sRGB">
<feFlood flood-opacity="0" result="BackgroundImageFix"/>
<feColorMatrix in="SourceAlpha" type="matrix" values="0 0 0 0 0 0 0 0 0 0 0 0 0 0 0 0 0 0 127 0" result="hardAlpha"/>
<feOffset dy="4"/>
<feGaussianBlur stdDeviation="2"/>
<feComposite in2="hardAlpha" operator="out"/>
<feColorMatrix type="matrix" values="0 0 0 0 1 0 0 0 0 0.995192 0 0 0 0 0.995192 0 0 0 0.79 0"/>
<feBlend mode="normal" in2="BackgroundImageFix" result="effect1_dropShadow_1_5"/>
<feBlend mode="normal" in="SourceGraphic" in2="effect1_dropShadow_1_5" result="shape"/>
</filter>
<filter id="filter3_d_1_5" x="613" y="418" width="258" height="38.4078" filterUnits="userSpaceOnUse" color-interpolation-filters="sRGB">
<feFlood flood-opacity="0" result="BackgroundImageFix"/>
<feColorMatrix in="SourceAlpha" type="matrix" values="0 0 0 0 0 0 0 0 0 0 0 0 0 0 0 0 0 0 127 0" result="hardAlpha"/>
<feOffset dy="4"/>
<feGaussianBlur stdDeviation="2"/>
<feComposite in2="hardAlpha" operator="out"/>
<feColorMatrix type="matrix" values="0 0 0 0 1 0 0 0 0 0.995192 0 0 0 0 0.995192 0 0 0 0.79 0"/>
<feBlend mode="normal" in2="BackgroundImageFix" result="effect1_dropShadow_1_5"/>
<feBlend mode="normal" in="SourceGraphic" in2="effect1_dropShadow_1_5" result="shape"/>
</filter>
<radialGradient id="paint0_radial_1_5" cx="0" cy="0" r="1" gradientUnits="userSpaceOnUse" gradientTransform="translate(724 512) rotate(90) scale(512 720)">
<stop offset="0.528846" stop-color="#65B3CF"/>
<stop offset="0.836538" stop-color="#2C2A5F"/>
</radialGradient>
</defs>
</svg>
